<?xml version="1.0" encoding="UTF-8" standalone="no"?>
<!DOCTYPE svg PUBLIC "-//W3C//DTD SVG 1.1//EN"
 "http://www.w3.org/Graphics/SVG/1.1/DTD/svg11.dtd">
<!-- Generated by graphviz version 2.43.0 (0)
 -->
<!-- Title: regexp Pages: 1 -->
<svg width="887pt" height="206pt"
 viewBox="0.00 0.00 886.83 206.00" xmlns="http://www.w3.org/2000/svg" xmlns:xlink="http://www.w3.org/1999/xlink">
<g id="graph0" class="graph" transform="scale(1 1) rotate(0) translate(4 202)">
<title>regexp</title>
<polygon fill="white" stroke="transparent" points="-4,4 -4,-202 882.83,-202 882.83,4 -4,4"/>
<!-- NyseEventsCollect -->
<g id="node1" class="node">
<title>NyseEventsCollect</title>
<ellipse fill="chartreuse" stroke="black" cx="267.38" cy="-180" rx="85.59" ry="18"/>
<text text-anchor="middle" x="267.38" y="-176.3" font-family="Helvetica,Arial,sans-serif" font-size="14.00">NYSE event collect</text>
</g>
<!-- n1 -->
<g id="node2" class="node">
<title>n1</title>
<ellipse fill="none" stroke="black" cx="545.81" cy="-180" rx="89.08" ry="18"/>
<text text-anchor="middle" x="545.81" y="-176.3" font-family="Helvetica,Arial,sans-serif" font-size="14.00">NYSE event staging</text>
</g>
<!-- NyseEventsCollect&#45;&gt;n1 -->
<g id="edge1" class="edge">
<title>NyseEventsCollect&#45;&gt;n1</title>
<path fill="none" stroke="black" d="M353.2,-180C382.57,-180 415.74,-180 446.13,-180"/>
<polygon fill="black" stroke="black" points="446.32,-183.5 456.32,-180 446.32,-176.5 446.32,-183.5"/>
</g>
<!-- NyseInstrumentsCollect -->
<g id="node3" class="node">
<title>NyseInstrumentsCollect</title>
<ellipse fill="chartreuse" stroke="black" cx="267.38" cy="-72" rx="105.88" ry="18"/>
<text text-anchor="middle" x="267.38" y="-68.3" font-family="Helvetica,Arial,sans-serif" font-size="14.00">NYSE instrument collect</text>
</g>
<!-- NyseInstrumentsStage -->
<g id="node4" class="node">
<title>NyseInstrumentsStage</title>
<ellipse fill="none" stroke="black" cx="545.81" cy="-126" rx="109.38" ry="18"/>
<text text-anchor="middle" x="545.81" y="-122.3" font-family="Helvetica,Arial,sans-serif" font-size="14.00">NYSE instrument staging</text>
</g>
<!-- NyseInstrumentsCollect&#45;&gt;NyseInstrumentsStage -->
<g id="edge2" class="edge">
<title>NyseInstrumentsCollect&#45;&gt;NyseInstrumentsStage</title>
<path fill="none" stroke="black" d="M337.78,-85.56C376.26,-93.07 424.29,-102.46 464.4,-110.29"/>
<polygon fill="black" stroke="black" points="463.93,-113.77 474.42,-112.25 465.28,-106.9 463.93,-113.77"/>
</g>
<!-- PolygonOpenClose -->
<g id="node8" class="node">
<title>PolygonOpenClose</title>
<ellipse fill="none" stroke="black" cx="791.74" cy="-99" rx="87.18" ry="18"/>
<text text-anchor="middle" x="791.74" y="-95.3" font-family="Helvetica,Arial,sans-serif" font-size="14.00">Polygon open close</text>
</g>
<!-- NyseInstrumentsStage&#45;&gt;PolygonOpenClose -->
<g id="edge8" class="edge">
<title>NyseInstrumentsStage&#45;&gt;PolygonOpenClose</title>
<path fill="none" stroke="black" d="M636.95,-116.02C659.07,-113.57 682.7,-110.96 704.63,-108.53"/>
<polygon fill="black" stroke="black" points="705.02,-112.01 714.58,-107.43 704.25,-105.05 705.02,-112.01"/>
</g>
<!-- SecCompaniesCollect -->
<g id="node5" class="node">
<title>SecCompaniesCollect</title>
<ellipse fill="chartreuse" stroke="black" cx="55.9" cy="-126" rx="55.79" ry="18"/>
<text text-anchor="middle" x="55.9" y="-122.3" font-family="Helvetica,Arial,sans-serif" font-size="14.00">SEC collect</text>
</g>
<!-- SecCompaniesStage -->
<g id="node6" class="node">
<title>SecCompaniesStage</title>
<ellipse fill="none" stroke="black" cx="267.38" cy="-126" rx="59.59" ry="18"/>
<text text-anchor="middle" x="267.38" y="-122.3" font-family="Helvetica,Arial,sans-serif" font-size="14.00">SEC staging</text>
</g>
<!-- SecCompaniesCollect&#45;&gt;SecCompaniesStage -->
<g id="edge3" class="edge">
<title>SecCompaniesCollect&#45;&gt;SecCompaniesStage</title>
<path fill="none" stroke="black" d="M111.93,-126C138.06,-126 169.56,-126 197.28,-126"/>
<polygon fill="black" stroke="black" points="197.3,-129.5 207.3,-126 197.3,-122.5 197.3,-129.5"/>
</g>
<!-- SecCompaniesStage&#45;&gt;n1 -->
<g id="edge5" class="edge">
<title>SecCompaniesStage&#45;&gt;n1</title>
<path fill="none" stroke="black" d="M318.12,-135.72C360.71,-144.04 422.64,-156.13 471.01,-165.58"/>
<polygon fill="black" stroke="black" points="470.63,-169.08 481.12,-167.56 471.97,-162.21 470.63,-169.08"/>
</g>
<!-- SecCompaniesStage&#45;&gt;NyseInstrumentsStage -->
<g id="edge4" class="edge">
<title>SecCompaniesStage&#45;&gt;NyseInstrumentsStage</title>
<path fill="none" stroke="black" d="M327.34,-126C356.28,-126 392.21,-126 426.48,-126"/>
<polygon fill="black" stroke="black" points="426.57,-129.5 436.57,-126 426.57,-122.5 426.57,-129.5"/>
</g>
<!-- FinmodCompanyProfileStage -->
<g id="node10" class="node">
<title>FinmodCompanyProfileStage</title>
<ellipse fill="none" stroke="black" cx="545.81" cy="-18" rx="122.68" ry="18"/>
<text text-anchor="middle" x="545.81" y="-14.3" font-family="Helvetica,Arial,sans-serif" font-size="14.00">FMP companyprofile staging</text>
</g>
<!-- SecCompaniesStage&#45;&gt;FinmodCompanyProfileStage -->
<g id="edge6" class="edge">
<title>SecCompaniesStage&#45;&gt;FinmodCompanyProfileStage</title>
<path fill="none" stroke="black" d="M325.63,-121.82C346.36,-118.12 369.06,-111.34 386.97,-99 410.72,-82.63 399.17,-61.3 422.97,-45 429.5,-40.52 436.66,-36.78 444.12,-33.64"/>
<polygon fill="black" stroke="black" points="445.62,-36.82 453.72,-29.98 443.13,-30.27 445.62,-36.82"/>
</g>
<!-- PolygonGroupedDaily -->
<g id="node7" class="node">
<title>PolygonGroupedDaily</title>
<ellipse fill="chartreuse" stroke="black" cx="545.81" cy="-72" rx="97.48" ry="18"/>
<text text-anchor="middle" x="545.81" y="-68.3" font-family="Helvetica,Arial,sans-serif" font-size="14.00">Polygon grouped daily</text>
</g>
<!-- PolygonGroupedDaily&#45;&gt;PolygonOpenClose -->
<g id="edge7" class="edge">
<title>PolygonGroupedDaily&#45;&gt;PolygonOpenClose</title>
<path fill="none" stroke="black" d="M629.73,-81.18C653.78,-83.84 680.1,-86.75 704.35,-89.44"/>
<polygon fill="black" stroke="black" points="704.28,-92.95 714.61,-90.57 705.05,-85.99 704.28,-92.95"/>
</g>
<!-- FinmodCompanyProfile -->
<g id="node9" class="node">
<title>FinmodCompanyProfile</title>
<ellipse fill="chartreuse" stroke="black" cx="267.38" cy="-18" rx="119.68" ry="18"/>
<text text-anchor="middle" x="267.38" y="-14.3" font-family="Helvetica,Arial,sans-serif" font-size="14.00">FMP companyprofile collect</text>
</g>
<!-- FinmodCompanyProfile&#45;&gt;FinmodCompanyProfileStage -->
<g id="edge9" class="edge">
<title>FinmodCompanyProfile&#45;&gt;FinmodCompanyProfileStage</title>
<path fill="none" stroke="black" d="M387.21,-18C395.54,-18 403.96,-18 412.35,-18"/>
<polygon fill="black" stroke="black" points="412.56,-21.5 422.56,-18 412.56,-14.5 412.56,-21.5"/>
</g>
</g>
</svg>
