<?xml version="1.0" encoding="UTF-8" standalone="no"?>
<!DOCTYPE svg PUBLIC "-//W3C//DTD SVG 1.1//EN"
 "http://www.w3.org/Graphics/SVG/1.1/DTD/svg11.dtd">
<!-- Generated by graphviz version 2.43.0 (0)
 -->
<!-- Title: regexp Pages: 1 -->
<svg width="622pt" height="152pt"
 viewBox="0.00 0.00 622.05 152.00" xmlns="http://www.w3.org/2000/svg" xmlns:xlink="http://www.w3.org/1999/xlink">
<g id="graph0" class="graph" transform="scale(1 1) rotate(0) translate(4 148)">
<title>regexp</title>
<polygon fill="white" stroke="transparent" points="-4,4 -4,-148 618.05,-148 618.05,4 -4,4"/>
<!-- n0 -->
<g id="node1" class="node">
<title>n0</title>
<ellipse fill="none" stroke="black" cx="253.73" cy="-126" rx="85.59" ry="18"/>
<text text-anchor="middle" x="253.73" y="-122.3" font-family="Helvetica,Arial,sans-serif" font-size="14.00">NYSE event collect</text>
</g>
<!-- n1 -->
<g id="node2" class="node">
<title>n1</title>
<ellipse fill="none" stroke="black" cx="504.86" cy="-99" rx="89.08" ry="18"/>
<text text-anchor="middle" x="504.86" y="-95.3" font-family="Helvetica,Arial,sans-serif" font-size="14.00">NYSE event staging</text>
</g>
<!-- n0&#45;&gt;n1 -->
<g id="edge1" class="edge">
<title>n0&#45;&gt;n1</title>
<path fill="none" stroke="black" d="M330.49,-117.79C357.39,-114.87 387.9,-111.57 415.75,-108.55"/>
<polygon fill="black" stroke="black" points="416.31,-112.01 425.88,-107.45 415.56,-105.05 416.31,-112.01"/>
</g>
<!-- n2 -->
<g id="node3" class="node">
<title>n2</title>
<ellipse fill="none" stroke="black" cx="253.73" cy="-18" rx="105.88" ry="18"/>
<text text-anchor="middle" x="253.73" y="-14.3" font-family="Helvetica,Arial,sans-serif" font-size="14.00">NYSE instrument collect</text>
</g>
<!-- n3 -->
<g id="node4" class="node">
<title>n3</title>
<ellipse fill="none" stroke="black" cx="504.86" cy="-32" rx="109.38" ry="18"/>
<text text-anchor="middle" x="504.86" y="-28.3" font-family="Helvetica,Arial,sans-serif" font-size="14.00">NYSE instrument staging</text>
</g>
<!-- n2&#45;&gt;n3 -->
<g id="edge2" class="edge">
<title>n2&#45;&gt;n3</title>
<path fill="none" stroke="black" d="M354.63,-23.61C366.58,-24.29 378.84,-24.97 390.96,-25.66"/>
<polygon fill="black" stroke="black" points="390.91,-29.16 401.09,-26.22 391.31,-22.17 390.91,-29.16"/>
</g>
<!-- n4 -->
<g id="node5" class="node">
<title>n4</title>
<ellipse fill="none" stroke="black" cx="55.9" cy="-72" rx="55.79" ry="18"/>
<text text-anchor="middle" x="55.9" y="-68.3" font-family="Helvetica,Arial,sans-serif" font-size="14.00">SEC collect</text>
</g>
<!-- n5 -->
<g id="node6" class="node">
<title>n5</title>
<ellipse fill="none" stroke="black" cx="253.73" cy="-72" rx="59.59" ry="18"/>
<text text-anchor="middle" x="253.73" y="-68.3" font-family="Helvetica,Arial,sans-serif" font-size="14.00">SEC staging</text>
</g>
<!-- n4&#45;&gt;n5 -->
<g id="edge3" class="edge">
<title>n4&#45;&gt;n5</title>
<path fill="none" stroke="black" d="M111.97,-72C134.14,-72 159.97,-72 183.4,-72"/>
<polygon fill="black" stroke="black" points="183.62,-75.5 193.62,-72 183.62,-68.5 183.62,-75.5"/>
</g>
<!-- n5&#45;&gt;n1 -->
<g id="edge5" class="edge">
<title>n5&#45;&gt;n1</title>
<path fill="none" stroke="black" d="M310.33,-78.03C341.26,-81.38 380.48,-85.63 415.52,-89.43"/>
<polygon fill="black" stroke="black" points="415.44,-92.94 425.76,-90.54 416.19,-85.98 415.44,-92.94"/>
</g>
<!-- n5&#45;&gt;n3 -->
<g id="edge4" class="edge">
<title>n5&#45;&gt;n3</title>
<path fill="none" stroke="black" d="M306.96,-63.61C338.52,-58.55 379.56,-51.96 416,-46.11"/>
<polygon fill="black" stroke="black" points="416.83,-49.52 426.15,-44.48 415.72,-42.61 416.83,-49.52"/>
</g>
</g>
</svg>
