<?xml version="1.0" encoding="UTF-8" standalone="no"?>
<!DOCTYPE svg PUBLIC "-//W3C//DTD SVG 1.1//EN"
 "http://www.w3.org/Graphics/SVG/1.1/DTD/svg11.dtd">
<!-- Generated by graphviz version 2.43.0 (0)
 -->
<!-- Title: regexp Pages: 1 -->
<svg width="1183pt" height="206pt"
 viewBox="0.00 0.00 1183.21 206.00" xmlns="http://www.w3.org/2000/svg" xmlns:xlink="http://www.w3.org/1999/xlink">
<g id="graph0" class="graph" transform="scale(1 1) rotate(0) translate(4 202)">
<title>regexp</title>
<polygon fill="white" stroke="transparent" points="-4,4 -4,-202 1179.21,-202 1179.21,4 -4,4"/>
<!-- NyseEventsCollect -->
<g id="node1" class="node">
<title>NyseEventsCollect</title>
<ellipse fill="chartreuse" stroke="black" cx="398.02" cy="-126" rx="85.59" ry="18"/>
<text text-anchor="middle" x="398.02" y="-122.3" font-family="Helvetica,Arial,sans-serif" font-size="14.00">NYSE event collect</text>
</g>
<!-- n1 -->
<g id="node2" class="node">
<title>n1</title>
<ellipse fill="none" stroke="black" cx="704.39" cy="-126" rx="89.08" ry="18"/>
<text text-anchor="middle" x="704.39" y="-122.3" font-family="Helvetica,Arial,sans-serif" font-size="14.00">NYSE event staging</text>
</g>
<!-- NyseEventsCollect&#45;&gt;n1 -->
<g id="edge1" class="edge">
<title>NyseEventsCollect&#45;&gt;n1</title>
<path fill="none" stroke="black" d="M484.21,-126C521.74,-126 566.07,-126 605.01,-126"/>
<polygon fill="black" stroke="black" points="605.31,-129.5 615.31,-126 605.31,-122.5 605.31,-129.5"/>
</g>
<!-- NyseInstrumentsCollect -->
<g id="node3" class="node">
<title>NyseInstrumentsCollect</title>
<ellipse fill="chartreuse" stroke="black" cx="119.59" cy="-126" rx="105.88" ry="18"/>
<text text-anchor="middle" x="119.59" y="-122.3" font-family="Helvetica,Arial,sans-serif" font-size="14.00">NYSE instrument collect</text>
</g>
<!-- NyseInstrumentsStage -->
<g id="node4" class="node">
<title>NyseInstrumentsStage</title>
<ellipse fill="none" stroke="black" cx="704.39" cy="-18" rx="109.38" ry="18"/>
<text text-anchor="middle" x="704.39" y="-14.3" font-family="Helvetica,Arial,sans-serif" font-size="14.00">NYSE instrument staging</text>
</g>
<!-- PolygonOpenClose -->
<g id="node9" class="node">
<title>PolygonOpenClose</title>
<ellipse fill="none" stroke="black" cx="1031.57" cy="-18" rx="87.18" ry="18"/>
<text text-anchor="middle" x="1031.57" y="-14.3" font-family="Helvetica,Arial,sans-serif" font-size="14.00">Polygon open close</text>
</g>
<!-- NyseInstrumentsStage&#45;&gt;PolygonOpenClose -->
<g id="edge7" class="edge">
<title>NyseInstrumentsStage&#45;&gt;PolygonOpenClose</title>
<path fill="none" stroke="black" d="M813.67,-18C852.68,-18 896.4,-18 934.31,-18"/>
<polygon fill="black" stroke="black" points="934.33,-21.5 944.33,-18 934.33,-14.5 934.33,-21.5"/>
</g>
<!-- SecCompaniesCollect -->
<g id="node5" class="node">
<title>SecCompaniesCollect</title>
<ellipse fill="chartreuse" stroke="black" cx="119.59" cy="-45" rx="55.79" ry="18"/>
<text text-anchor="middle" x="119.59" y="-41.3" font-family="Helvetica,Arial,sans-serif" font-size="14.00">SEC collect</text>
</g>
<!-- SecCompaniesStage -->
<g id="node6" class="node">
<title>SecCompaniesStage</title>
<ellipse fill="none" stroke="black" cx="398.02" cy="-45" rx="59.59" ry="18"/>
<text text-anchor="middle" x="398.02" y="-41.3" font-family="Helvetica,Arial,sans-serif" font-size="14.00">SEC staging</text>
</g>
<!-- SecCompaniesCollect&#45;&gt;SecCompaniesStage -->
<g id="edge2" class="edge">
<title>SecCompaniesCollect&#45;&gt;SecCompaniesStage</title>
<path fill="none" stroke="black" d="M175.53,-45C219.25,-45 280.68,-45 327.76,-45"/>
<polygon fill="black" stroke="black" points="327.87,-48.5 337.87,-45 327.87,-41.5 327.87,-48.5"/>
</g>
<!-- SecCompaniesStage&#45;&gt;n1 -->
<g id="edge4" class="edge">
<title>SecCompaniesStage&#45;&gt;n1</title>
<path fill="none" stroke="black" d="M435.23,-59.1C466.92,-71.02 514.41,-87.89 556.86,-99 578.03,-104.54 601.21,-109.37 622.76,-113.35"/>
<polygon fill="black" stroke="black" points="622.4,-116.84 632.87,-115.17 623.65,-109.95 622.4,-116.84"/>
</g>
<!-- SecCompaniesStage&#45;&gt;NyseInstrumentsStage -->
<g id="edge3" class="edge">
<title>SecCompaniesStage&#45;&gt;NyseInstrumentsStage</title>
<path fill="none" stroke="black" d="M455.56,-39.98C495.44,-36.45 550.07,-31.6 597.88,-27.36"/>
<polygon fill="black" stroke="black" points="598.33,-30.83 607.98,-26.46 597.71,-23.86 598.33,-30.83"/>
</g>
<!-- PolygonGroupedDaily -->
<g id="node7" class="node">
<title>PolygonGroupedDaily</title>
<ellipse fill="chartreuse" stroke="black" cx="704.39" cy="-72" rx="97.48" ry="18"/>
<text text-anchor="middle" x="704.39" y="-68.3" font-family="Helvetica,Arial,sans-serif" font-size="14.00">Polygon grouped daily</text>
</g>
<!-- PolygonGroupedDailyStager -->
<g id="node8" class="node">
<title>PolygonGroupedDailyStager</title>
<ellipse fill="none" stroke="black" cx="1031.57" cy="-72" rx="124.28" ry="18"/>
<text text-anchor="middle" x="1031.57" y="-68.3" font-family="Helvetica,Arial,sans-serif" font-size="14.00">Polygon grouped daily stager</text>
</g>
<!-- PolygonGroupedDaily&#45;&gt;PolygonGroupedDailyStager -->
<g id="edge6" class="edge">
<title>PolygonGroupedDaily&#45;&gt;PolygonGroupedDailyStager</title>
<path fill="none" stroke="black" d="M802.08,-72C831.89,-72 865.27,-72 897.1,-72"/>
<polygon fill="black" stroke="black" points="897.38,-75.5 907.38,-72 897.38,-68.5 897.38,-75.5"/>
</g>
<!-- PolygonGroupedDaily&#45;&gt;PolygonOpenClose -->
<g id="edge5" class="edge">
<title>PolygonGroupedDaily&#45;&gt;PolygonOpenClose</title>
<path fill="none" stroke="black" d="M777.56,-60.02C829.59,-51.38 899.74,-39.73 952.97,-30.89"/>
<polygon fill="black" stroke="black" points="953.75,-34.3 963.04,-29.21 952.61,-27.4 953.75,-34.3"/>
</g>
<!-- FinmodCompanyProfile -->
<g id="node10" class="node">
<title>FinmodCompanyProfile</title>
<ellipse fill="chartreuse" stroke="black" cx="119.59" cy="-180" rx="119.68" ry="18"/>
<text text-anchor="middle" x="119.59" y="-176.3" font-family="Helvetica,Arial,sans-serif" font-size="14.00">FMP companyprofile collect</text>
</g>
<!-- FinmodCompanyProfileStage -->
<g id="node11" class="node">
<title>FinmodCompanyProfileStage</title>
<ellipse fill="none" stroke="black" cx="398.02" cy="-180" rx="122.68" ry="18"/>
<text text-anchor="middle" x="398.02" y="-176.3" font-family="Helvetica,Arial,sans-serif" font-size="14.00">FMP companyprofile staging</text>
</g>
<!-- FinmodCompanyProfile&#45;&gt;FinmodCompanyProfileStage -->
<g id="edge8" class="edge">
<title>FinmodCompanyProfile&#45;&gt;FinmodCompanyProfileStage</title>
<path fill="none" stroke="black" d="M239.42,-180C247.75,-180 256.17,-180 264.55,-180"/>
<polygon fill="black" stroke="black" points="264.77,-183.5 274.77,-180 264.77,-176.5 264.77,-183.5"/>
</g>
<!-- FinmodCompanyMarketCap -->
<g id="node12" class="node">
<title>FinmodCompanyMarketCap</title>
<ellipse fill="none" stroke="black" cx="704.39" cy="-180" rx="147.57" ry="18"/>
<text text-anchor="middle" x="704.39" y="-176.3" font-family="Helvetica,Arial,sans-serif" font-size="14.00">FMP Market capitalization collector</text>
</g>
<!-- FinmodCompanyProfileStage&#45;&gt;FinmodCompanyMarketCap -->
<g id="edge9" class="edge">
<title>FinmodCompanyProfileStage&#45;&gt;FinmodCompanyMarketCap</title>
<path fill="none" stroke="black" d="M521.07,-180C529.51,-180 538.07,-180 546.66,-180"/>
<polygon fill="black" stroke="black" points="546.75,-183.5 556.75,-180 546.75,-176.5 546.75,-183.5"/>
</g>
<!-- FinmodCompanyMarketCapStage -->
<g id="node13" class="node">
<title>FinmodCompanyMarketCapStage</title>
<ellipse fill="none" stroke="black" cx="1031.57" cy="-180" rx="143.77" ry="18"/>
<text text-anchor="middle" x="1031.57" y="-176.3" font-family="Helvetica,Arial,sans-serif" font-size="14.00">FMP Market capitalization staging</text>
</g>
<!-- FinmodCompanyMarketCap&#45;&gt;FinmodCompanyMarketCapStage -->
<g id="edge10" class="edge">
<title>FinmodCompanyMarketCap&#45;&gt;FinmodCompanyMarketCapStage</title>
<path fill="none" stroke="black" d="M852.28,-180C860.66,-180 869.09,-180 877.49,-180"/>
<polygon fill="black" stroke="black" points="877.71,-183.5 887.71,-180 877.71,-176.5 877.71,-183.5"/>
</g>
</g>
</svg>
