<?xml version="1.0" encoding="UTF-8" standalone="no"?>
<!DOCTYPE svg PUBLIC "-//W3C//DTD SVG 1.1//EN"
 "http://www.w3.org/Graphics/SVG/1.1/DTD/svg11.dtd">
<!-- Generated by graphviz version 2.43.0 (0)
 -->
<!-- Title: regexp Pages: 1 -->
<svg width="832pt" height="152pt"
 viewBox="0.00 0.00 832.24 152.00" xmlns="http://www.w3.org/2000/svg" xmlns:xlink="http://www.w3.org/1999/xlink">
<g id="graph0" class="graph" transform="scale(1 1) rotate(0) translate(4 148)">
<title>regexp</title>
<polygon fill="white" stroke="transparent" points="-4,4 -4,-148 828.24,-148 828.24,4 -4,4"/>
<!-- NyseEventsCollect -->
<g id="node1" class="node">
<title>NyseEventsCollect</title>
<ellipse fill="chartreuse" stroke="black" cx="253.73" cy="-126" rx="85.59" ry="18"/>
<text text-anchor="middle" x="253.73" y="-122.3" font-family="Helvetica,Arial,sans-serif" font-size="14.00">NYSE event collect</text>
</g>
<!-- n1 -->
<g id="node2" class="node">
<title>n1</title>
<ellipse fill="none" stroke="black" cx="504.86" cy="-126" rx="89.08" ry="18"/>
<text text-anchor="middle" x="504.86" y="-122.3" font-family="Helvetica,Arial,sans-serif" font-size="14.00">NYSE event staging</text>
</g>
<!-- NyseEventsCollect&#45;&gt;n1 -->
<g id="edge1" class="edge">
<title>NyseEventsCollect&#45;&gt;n1</title>
<path fill="none" stroke="black" d="M339.77,-126C360.94,-126 383.82,-126 405.57,-126"/>
<polygon fill="black" stroke="black" points="405.81,-129.5 415.81,-126 405.81,-122.5 405.81,-129.5"/>
</g>
<!-- NyseInstrumentsCollect -->
<g id="node3" class="node">
<title>NyseInstrumentsCollect</title>
<ellipse fill="chartreuse" stroke="black" cx="253.73" cy="-18" rx="105.88" ry="18"/>
<text text-anchor="middle" x="253.73" y="-14.3" font-family="Helvetica,Arial,sans-serif" font-size="14.00">NYSE instrument collect</text>
</g>
<!-- NyseInstrumentsStage -->
<g id="node4" class="node">
<title>NyseInstrumentsStage</title>
<ellipse fill="none" stroke="black" cx="504.86" cy="-18" rx="109.38" ry="18"/>
<text text-anchor="middle" x="504.86" y="-14.3" font-family="Helvetica,Arial,sans-serif" font-size="14.00">NYSE instrument staging</text>
</g>
<!-- NyseInstrumentsCollect&#45;&gt;NyseInstrumentsStage -->
<g id="edge2" class="edge">
<title>NyseInstrumentsCollect&#45;&gt;NyseInstrumentsStage</title>
<path fill="none" stroke="black" d="M360.02,-18C368.33,-18 376.76,-18 385.15,-18"/>
<polygon fill="black" stroke="black" points="385.35,-21.5 395.35,-18 385.35,-14.5 385.35,-21.5"/>
</g>
<!-- PolygonOpenClose -->
<g id="node8" class="node">
<title>PolygonOpenClose</title>
<ellipse fill="none" stroke="black" cx="737.14" cy="-45" rx="87.18" ry="18"/>
<text text-anchor="middle" x="737.14" y="-41.3" font-family="Helvetica,Arial,sans-serif" font-size="14.00">Polygon open close</text>
</g>
<!-- NyseInstrumentsStage&#45;&gt;PolygonOpenClose -->
<g id="edge7" class="edge">
<title>NyseInstrumentsStage&#45;&gt;PolygonOpenClose</title>
<path fill="none" stroke="black" d="M594.24,-28.36C612.86,-30.54 632.47,-32.84 650.97,-35.01"/>
<polygon fill="black" stroke="black" points="650.78,-38.52 661.12,-36.2 651.6,-31.56 650.78,-38.52"/>
</g>
<!-- SecCompaniesCollect -->
<g id="node5" class="node">
<title>SecCompaniesCollect</title>
<ellipse fill="chartreuse" stroke="black" cx="55.9" cy="-72" rx="55.79" ry="18"/>
<text text-anchor="middle" x="55.9" y="-68.3" font-family="Helvetica,Arial,sans-serif" font-size="14.00">SEC collect</text>
</g>
<!-- SecCompaniesStage -->
<g id="node6" class="node">
<title>SecCompaniesStage</title>
<ellipse fill="none" stroke="black" cx="253.73" cy="-72" rx="59.59" ry="18"/>
<text text-anchor="middle" x="253.73" y="-68.3" font-family="Helvetica,Arial,sans-serif" font-size="14.00">SEC staging</text>
</g>
<!-- SecCompaniesCollect&#45;&gt;SecCompaniesStage -->
<g id="edge3" class="edge">
<title>SecCompaniesCollect&#45;&gt;SecCompaniesStage</title>
<path fill="none" stroke="black" d="M111.97,-72C134.14,-72 159.97,-72 183.4,-72"/>
<polygon fill="black" stroke="black" points="183.62,-75.5 193.62,-72 183.62,-68.5 183.62,-75.5"/>
</g>
<!-- SecCompaniesStage&#45;&gt;n1 -->
<g id="edge5" class="edge">
<title>SecCompaniesStage&#45;&gt;n1</title>
<path fill="none" stroke="black" d="M302.77,-82.41C339.81,-90.44 391.6,-101.67 433.34,-110.71"/>
<polygon fill="black" stroke="black" points="432.66,-114.15 443.18,-112.85 434.14,-107.31 432.66,-114.15"/>
</g>
<!-- SecCompaniesStage&#45;&gt;NyseInstrumentsStage -->
<g id="edge4" class="edge">
<title>SecCompaniesStage&#45;&gt;NyseInstrumentsStage</title>
<path fill="none" stroke="black" d="M302.77,-61.59C338.3,-53.89 387.39,-43.25 428.17,-34.41"/>
<polygon fill="black" stroke="black" points="429.05,-37.8 438.08,-32.26 427.56,-30.96 429.05,-37.8"/>
</g>
<!-- PolygonGroupedDaily -->
<g id="node7" class="node">
<title>PolygonGroupedDaily</title>
<ellipse fill="chartreuse" stroke="black" cx="504.86" cy="-72" rx="97.48" ry="18"/>
<text text-anchor="middle" x="504.86" y="-68.3" font-family="Helvetica,Arial,sans-serif" font-size="14.00">Polygon grouped daily</text>
</g>
<!-- PolygonGroupedDaily&#45;&gt;PolygonOpenClose -->
<g id="edge6" class="edge">
<title>PolygonGroupedDaily&#45;&gt;PolygonOpenClose</title>
<path fill="none" stroke="black" d="M587.7,-62.4C608.25,-60 630.35,-57.4 651.06,-54.98"/>
<polygon fill="black" stroke="black" points="651.58,-58.44 661.1,-53.8 650.76,-51.49 651.58,-58.44"/>
</g>
</g>
</svg>
