<?xml version="1.0" encoding="UTF-8" standalone="no"?>
<!DOCTYPE svg PUBLIC "-//W3C//DTD SVG 1.1//EN"
 "http://www.w3.org/Graphics/SVG/1.1/DTD/svg11.dtd">
<!-- Generated by graphviz version 2.43.0 (0)
 -->
<!-- Title: regexp Pages: 1 -->
<svg width="1144pt" height="206pt"
 viewBox="0.00 0.00 1144.21 206.00" xmlns="http://www.w3.org/2000/svg" xmlns:xlink="http://www.w3.org/1999/xlink">
<g id="graph0" class="graph" transform="scale(1 1) rotate(0) translate(4 202)">
<title>regexp</title>
<polygon fill="white" stroke="transparent" points="-4,4 -4,-202 1140.21,-202 1140.21,4 -4,4"/>
<!-- NyseEventsCollect -->
<g id="node1" class="node">
<title>NyseEventsCollect</title>
<ellipse fill="chartreuse" stroke="black" cx="398.02" cy="-126" rx="85.59" ry="18"/>
<text text-anchor="middle" x="398.02" y="-122.3" font-family="Helvetica,Arial,sans-serif" font-size="14.00">NYSE event collect</text>
</g>
<!-- n1 -->
<g id="node2" class="node">
<title>n1</title>
<ellipse fill="none" stroke="black" cx="704.39" cy="-126" rx="89.08" ry="18"/>
<text text-anchor="middle" x="704.39" y="-122.3" font-family="Helvetica,Arial,sans-serif" font-size="14.00">NYSE event staging</text>
</g>
<!-- NyseEventsCollect&#45;&gt;n1 -->
<g id="edge1" class="edge">
<title>NyseEventsCollect&#45;&gt;n1</title>
<path fill="none" stroke="black" d="M484.21,-126C521.74,-126 566.07,-126 605.01,-126"/>
<polygon fill="black" stroke="black" points="605.31,-129.5 615.31,-126 605.31,-122.5 605.31,-129.5"/>
</g>
<!-- NyseInstrumentsCollect -->
<g id="node3" class="node">
<title>NyseInstrumentsCollect</title>
<ellipse fill="chartreuse" stroke="black" cx="398.02" cy="-18" rx="105.88" ry="18"/>
<text text-anchor="middle" x="398.02" y="-14.3" font-family="Helvetica,Arial,sans-serif" font-size="14.00">NYSE instrument collect</text>
</g>
<!-- NyseInstrumentsStage -->
<g id="node4" class="node">
<title>NyseInstrumentsStage</title>
<ellipse fill="none" stroke="black" cx="704.39" cy="-18" rx="109.38" ry="18"/>
<text text-anchor="middle" x="704.39" y="-14.3" font-family="Helvetica,Arial,sans-serif" font-size="14.00">NYSE instrument staging</text>
</g>
<!-- NyseInstrumentsCollect&#45;&gt;NyseInstrumentsStage -->
<g id="edge2" class="edge">
<title>NyseInstrumentsCollect&#45;&gt;NyseInstrumentsStage</title>
<path fill="none" stroke="black" d="M504.19,-18C530.25,-18 558.34,-18 584.98,-18"/>
<polygon fill="black" stroke="black" points="585.11,-21.5 595.11,-18 585.11,-14.5 585.11,-21.5"/>
</g>
<!-- PolygonOpenClose -->
<g id="node9" class="node">
<title>PolygonOpenClose</title>
<ellipse fill="none" stroke="black" cx="1012.07" cy="-18" rx="87.18" ry="18"/>
<text text-anchor="middle" x="1012.07" y="-14.3" font-family="Helvetica,Arial,sans-serif" font-size="14.00">Polygon open close</text>
</g>
<!-- NyseInstrumentsStage&#45;&gt;PolygonOpenClose -->
<g id="edge8" class="edge">
<title>NyseInstrumentsStage&#45;&gt;PolygonOpenClose</title>
<path fill="none" stroke="black" d="M813.59,-18C846.45,-18 882.32,-18 914.37,-18"/>
<polygon fill="black" stroke="black" points="914.63,-21.5 924.63,-18 914.63,-14.5 914.63,-21.5"/>
</g>
<!-- SecCompaniesCollect -->
<g id="node5" class="node">
<title>SecCompaniesCollect</title>
<ellipse fill="chartreuse" stroke="black" cx="119.59" cy="-72" rx="55.79" ry="18"/>
<text text-anchor="middle" x="119.59" y="-68.3" font-family="Helvetica,Arial,sans-serif" font-size="14.00">SEC collect</text>
</g>
<!-- SecCompaniesStage -->
<g id="node6" class="node">
<title>SecCompaniesStage</title>
<ellipse fill="none" stroke="black" cx="398.02" cy="-72" rx="59.59" ry="18"/>
<text text-anchor="middle" x="398.02" y="-68.3" font-family="Helvetica,Arial,sans-serif" font-size="14.00">SEC staging</text>
</g>
<!-- SecCompaniesCollect&#45;&gt;SecCompaniesStage -->
<g id="edge3" class="edge">
<title>SecCompaniesCollect&#45;&gt;SecCompaniesStage</title>
<path fill="none" stroke="black" d="M175.53,-72C219.25,-72 280.68,-72 327.76,-72"/>
<polygon fill="black" stroke="black" points="327.87,-75.5 337.87,-72 327.87,-68.5 327.87,-75.5"/>
</g>
<!-- SecCompaniesStage&#45;&gt;n1 -->
<g id="edge5" class="edge">
<title>SecCompaniesStage&#45;&gt;n1</title>
<path fill="none" stroke="black" d="M449.96,-81.04C498.24,-89.6 571.38,-102.58 626.7,-112.39"/>
<polygon fill="black" stroke="black" points="626.36,-115.89 636.82,-114.19 627.58,-109 626.36,-115.89"/>
</g>
<!-- SecCompaniesStage&#45;&gt;NyseInstrumentsStage -->
<g id="edge4" class="edge">
<title>SecCompaniesStage&#45;&gt;NyseInstrumentsStage</title>
<path fill="none" stroke="black" d="M449.96,-62.96C496.17,-54.76 565.15,-42.53 619.49,-32.89"/>
<polygon fill="black" stroke="black" points="620.22,-36.31 629.45,-31.12 619,-29.42 620.22,-36.31"/>
</g>
<!-- PolygonGroupedDaily -->
<g id="node7" class="node">
<title>PolygonGroupedDaily</title>
<ellipse fill="chartreuse" stroke="black" cx="704.39" cy="-72" rx="97.48" ry="18"/>
<text text-anchor="middle" x="704.39" y="-68.3" font-family="Helvetica,Arial,sans-serif" font-size="14.00">Polygon grouped daily</text>
</g>
<!-- PolygonGroupedDailyStager -->
<g id="node8" class="node">
<title>PolygonGroupedDailyStager</title>
<ellipse fill="none" stroke="black" cx="1012.07" cy="-72" rx="124.28" ry="18"/>
<text text-anchor="middle" x="1012.07" y="-68.3" font-family="Helvetica,Arial,sans-serif" font-size="14.00">Polygon grouped daily stager</text>
</g>
<!-- PolygonGroupedDaily&#45;&gt;PolygonGroupedDailyStager -->
<g id="edge7" class="edge">
<title>PolygonGroupedDaily&#45;&gt;PolygonGroupedDailyStager</title>
<path fill="none" stroke="black" d="M802.11,-72C826.12,-72 852.28,-72 877.71,-72"/>
<polygon fill="black" stroke="black" points="877.79,-75.5 887.79,-72 877.79,-68.5 877.79,-75.5"/>
</g>
<!-- PolygonGroupedDaily&#45;&gt;PolygonOpenClose -->
<g id="edge6" class="edge">
<title>PolygonGroupedDaily&#45;&gt;PolygonOpenClose</title>
<path fill="none" stroke="black" d="M775.52,-59.61C823.26,-51.18 886.41,-40.02 935.3,-31.39"/>
<polygon fill="black" stroke="black" points="935.95,-34.82 945.19,-29.64 934.74,-27.93 935.95,-34.82"/>
</g>
<!-- FinmodCompanyProfile -->
<g id="node10" class="node">
<title>FinmodCompanyProfile</title>
<ellipse fill="chartreuse" stroke="black" cx="119.59" cy="-180" rx="119.68" ry="18"/>
<text text-anchor="middle" x="119.59" y="-176.3" font-family="Helvetica,Arial,sans-serif" font-size="14.00">FMP companyprofile collect</text>
</g>
<!-- FinmodCompanyProfileStage -->
<g id="node11" class="node">
<title>FinmodCompanyProfileStage</title>
<ellipse fill="none" stroke="black" cx="398.02" cy="-180" rx="122.68" ry="18"/>
<text text-anchor="middle" x="398.02" y="-176.3" font-family="Helvetica,Arial,sans-serif" font-size="14.00">FMP companyprofile staging</text>
</g>
<!-- FinmodCompanyProfile&#45;&gt;FinmodCompanyProfileStage -->
<g id="edge9" class="edge">
<title>FinmodCompanyProfile&#45;&gt;FinmodCompanyProfileStage</title>
<path fill="none" stroke="black" d="M239.42,-180C247.75,-180 256.17,-180 264.55,-180"/>
<polygon fill="black" stroke="black" points="264.77,-183.5 274.77,-180 264.77,-176.5 264.77,-183.5"/>
</g>
<!-- FinmodCompanyMarketCap -->
<g id="node12" class="node">
<title>FinmodCompanyMarketCap</title>
<ellipse fill="none" stroke="black" cx="704.39" cy="-180" rx="147.57" ry="18"/>
<text text-anchor="middle" x="704.39" y="-176.3" font-family="Helvetica,Arial,sans-serif" font-size="14.00">FMP Market capitalization collector</text>
</g>
<!-- FinmodCompanyProfileStage&#45;&gt;FinmodCompanyMarketCap -->
<g id="edge10" class="edge">
<title>FinmodCompanyProfileStage&#45;&gt;FinmodCompanyMarketCap</title>
<path fill="none" stroke="black" d="M521.07,-180C529.51,-180 538.07,-180 546.66,-180"/>
<polygon fill="black" stroke="black" points="546.75,-183.5 556.75,-180 546.75,-176.5 546.75,-183.5"/>
</g>
</g>
</svg>
