<?xml version="1.0" encoding="UTF-8" standalone="no"?>
<!DOCTYPE svg PUBLIC "-//W3C//DTD SVG 1.1//EN"
 "http://www.w3.org/Graphics/SVG/1.1/DTD/svg11.dtd">
<!-- Generated by graphviz version 2.43.0 (0)
 -->
<!-- Title: regexp Pages: 1 -->
<svg width="1044pt" height="152pt"
 viewBox="0.00 0.00 1044.12 152.00" xmlns="http://www.w3.org/2000/svg" xmlns:xlink="http://www.w3.org/1999/xlink">
<g id="graph0" class="graph" transform="scale(1 1) rotate(0) translate(4 148)">
<title>regexp</title>
<polygon fill="white" stroke="transparent" points="-4,4 -4,-148 1040.12,-148 1040.12,4 -4,4"/>
<!-- NyseEventsCollect -->
<g id="node1" class="node">
<title>NyseEventsCollect</title>
<ellipse fill="chartreuse" stroke="black" cx="465.61" cy="-126" rx="85.59" ry="18"/>
<text text-anchor="middle" x="465.61" y="-122.3" font-family="Helvetica,Arial,sans-serif" font-size="14.00">NYSE event collect</text>
</g>
<!-- n1 -->
<g id="node2" class="node">
<title>n1</title>
<ellipse fill="none" stroke="black" cx="716.74" cy="-126" rx="89.08" ry="18"/>
<text text-anchor="middle" x="716.74" y="-122.3" font-family="Helvetica,Arial,sans-serif" font-size="14.00">NYSE event staging</text>
</g>
<!-- NyseEventsCollect&#45;&gt;n1 -->
<g id="edge1" class="edge">
<title>NyseEventsCollect&#45;&gt;n1</title>
<path fill="none" stroke="black" d="M551.65,-126C572.83,-126 595.7,-126 617.45,-126"/>
<polygon fill="black" stroke="black" points="617.69,-129.5 627.69,-126 617.69,-122.5 617.69,-129.5"/>
</g>
<!-- NyseInstrumentsCollect -->
<g id="node3" class="node">
<title>NyseInstrumentsCollect</title>
<ellipse fill="chartreuse" stroke="black" cx="465.61" cy="-18" rx="105.88" ry="18"/>
<text text-anchor="middle" x="465.61" y="-14.3" font-family="Helvetica,Arial,sans-serif" font-size="14.00">NYSE instrument collect</text>
</g>
<!-- NyseInstrumentsStage -->
<g id="node4" class="node">
<title>NyseInstrumentsStage</title>
<ellipse fill="none" stroke="black" cx="716.74" cy="-18" rx="109.38" ry="18"/>
<text text-anchor="middle" x="716.74" y="-14.3" font-family="Helvetica,Arial,sans-serif" font-size="14.00">NYSE instrument staging</text>
</g>
<!-- NyseInstrumentsCollect&#45;&gt;NyseInstrumentsStage -->
<g id="edge2" class="edge">
<title>NyseInstrumentsCollect&#45;&gt;NyseInstrumentsStage</title>
<path fill="none" stroke="black" d="M571.9,-18C580.21,-18 588.64,-18 597.03,-18"/>
<polygon fill="black" stroke="black" points="597.23,-21.5 607.23,-18 597.23,-14.5 597.23,-21.5"/>
</g>
<!-- PolygonOpenClose -->
<g id="node8" class="node">
<title>PolygonOpenClose</title>
<ellipse fill="none" stroke="black" cx="949.03" cy="-45" rx="87.18" ry="18"/>
<text text-anchor="middle" x="949.03" y="-41.3" font-family="Helvetica,Arial,sans-serif" font-size="14.00">Polygon open close</text>
</g>
<!-- NyseInstrumentsStage&#45;&gt;PolygonOpenClose -->
<g id="edge7" class="edge">
<title>NyseInstrumentsStage&#45;&gt;PolygonOpenClose</title>
<path fill="none" stroke="black" d="M806.12,-28.36C824.74,-30.54 844.35,-32.84 862.85,-35.01"/>
<polygon fill="black" stroke="black" points="862.66,-38.52 873,-36.2 863.48,-31.56 862.66,-38.52"/>
</g>
<!-- SecCompaniesCollect -->
<g id="node5" class="node">
<title>SecCompaniesCollect</title>
<ellipse fill="chartreuse" stroke="black" cx="161.84" cy="-72" rx="55.79" ry="18"/>
<text text-anchor="middle" x="161.84" y="-68.3" font-family="Helvetica,Arial,sans-serif" font-size="14.00">SEC collect</text>
</g>
<!-- SecCompaniesStage -->
<g id="node6" class="node">
<title>SecCompaniesStage</title>
<ellipse fill="none" stroke="black" cx="465.61" cy="-72" rx="59.59" ry="18"/>
<text text-anchor="middle" x="465.61" y="-68.3" font-family="Helvetica,Arial,sans-serif" font-size="14.00">SEC staging</text>
</g>
<!-- SecCompaniesCollect&#45;&gt;SecCompaniesStage -->
<g id="edge3" class="edge">
<title>SecCompaniesCollect&#45;&gt;SecCompaniesStage</title>
<path fill="none" stroke="black" d="M217.84,-72C267.75,-72 341.55,-72 395.45,-72"/>
<polygon fill="black" stroke="black" points="395.61,-75.5 405.61,-72 395.61,-68.5 395.61,-75.5"/>
</g>
<!-- SecCompaniesStage&#45;&gt;n1 -->
<g id="edge5" class="edge">
<title>SecCompaniesStage&#45;&gt;n1</title>
<path fill="none" stroke="black" d="M514.65,-82.41C551.69,-90.44 603.48,-101.67 645.22,-110.71"/>
<polygon fill="black" stroke="black" points="644.54,-114.15 655.06,-112.85 646.03,-107.31 644.54,-114.15"/>
</g>
<!-- SecCompaniesStage&#45;&gt;NyseInstrumentsStage -->
<g id="edge4" class="edge">
<title>SecCompaniesStage&#45;&gt;NyseInstrumentsStage</title>
<path fill="none" stroke="black" d="M514.65,-61.59C550.18,-53.89 599.27,-43.25 640.05,-34.41"/>
<polygon fill="black" stroke="black" points="640.93,-37.8 649.96,-32.26 639.45,-30.96 640.93,-37.8"/>
</g>
<!-- PolygonGroupedDaily -->
<g id="node7" class="node">
<title>PolygonGroupedDaily</title>
<ellipse fill="chartreuse" stroke="black" cx="716.74" cy="-72" rx="97.48" ry="18"/>
<text text-anchor="middle" x="716.74" y="-68.3" font-family="Helvetica,Arial,sans-serif" font-size="14.00">Polygon grouped daily</text>
</g>
<!-- PolygonGroupedDaily&#45;&gt;PolygonOpenClose -->
<g id="edge6" class="edge">
<title>PolygonGroupedDaily&#45;&gt;PolygonOpenClose</title>
<path fill="none" stroke="black" d="M799.58,-62.4C820.13,-60 842.24,-57.4 862.94,-54.98"/>
<polygon fill="black" stroke="black" points="863.46,-58.44 872.98,-53.8 862.64,-51.49 863.46,-58.44"/>
</g>
<!-- FinmodCompanyProfile -->
<g id="node9" class="node">
<title>FinmodCompanyProfile</title>
<ellipse fill="chartreuse" stroke="black" cx="161.84" cy="-126" rx="161.67" ry="18"/>
<text text-anchor="middle" x="161.84" y="-122.3" font-family="Helvetica,Arial,sans-serif" font-size="14.00">Financialmodelingprep companyprofile</text>
</g>
</g>
</svg>
